<?xml version="1.0" encoding="UTF-8"?>
<svg xmlns="http://www.w3.org/2000/svg" width="1817" height="807" viewBox="0 0 1817 807" role="img" aria-label="Rough black ink signature reading Borges">
  <title>Rough ink Borges signature</title>
  <path d="M 708 752 L 710 753 L 710 760 L 712 762 L 712 765 L 715 771 L 718 773 L 720 776 L 729 779 L 739 785 L 756 786 L 757 785 L 760 785 L 769 782 L 786 771 L 793 771 L 795 770 L 800 764 L 809 764 L 812 761 L 813 758 L 820 756 L 825 751 L 831 751 L 835 748 L 841 740 L 846 736 L 847 734 L 849 734 L 849 733 L 851 732 L 852 729 L 855 728 L 857 726 L 859 721 L 864 717 L 865 714 L 871 710 L 874 705 L 874 703 L 880 698 L 880 696 L 884 693 L 887 689 L 888 684 L 895 678 L 896 674 L 904 663 L 905 659 L 908 656 L 911 650 L 915 645 L 916 641 L 923 635 L 927 629 L 928 625 L 930 622 L 938 616 L 938 614 L 941 609 L 945 606 L 946 603 L 948 602 L 949 600 L 949 596 L 952 592 L 955 590 L 959 583 L 960 579 L 963 576 L 963 574 L 965 573 L 965 571 L 968 568 L 968 563 L 971 561 L 975 556 L 976 551 L 983 541 L 983 539 L 987 535 L 987 533 L 991 529 L 993 525 L 995 524 L 995 517 L 1000 513 L 1003 508 L 1006 508 L 1009 504 L 1018 496 L 1021 496 L 1027 491 L 1030 490 L 1034 485 L 1037 483 L 1042 482 L 1045 480 L 1047 477 L 1050 476 L 1054 472 L 1056 472 L 1057 470 L 1061 469 L 1068 463 L 1070 463 L 1074 460 L 1081 457 L 1086 453 L 1089 452 L 1092 449 L 1100 449 L 1101 447 L 1103 447 L 1107 444 L 1110 444 L 1113 441 L 1126 440 L 1130 443 L 1130 450 L 1132 453 L 1140 460 L 1141 463 L 1142 463 L 1149 470 L 1160 472 L 1168 478 L 1171 478 L 1172 479 L 1177 479 L 1179 477 L 1193 478 L 1199 476 L 1202 473 L 1205 473 L 1211 475 L 1214 473 L 1217 473 L 1219 471 L 1222 470 L 1224 471 L 1232 471 L 1240 468 L 1245 464 L 1248 465 L 1252 463 L 1260 456 L 1268 455 L 1276 448 L 1281 449 L 1283 448 L 1284 446 L 1286 446 L 1288 444 L 1292 444 L 1300 439 L 1302 436 L 1308 433 L 1311 434 L 1317 433 L 1323 428 L 1332 424 L 1344 424 L 1350 422 L 1357 417 L 1361 416 L 1367 411 L 1369 411 L 1371 409 L 1380 405 L 1383 405 L 1389 403 L 1394 399 L 1396 399 L 1400 396 L 1417 391 L 1420 389 L 1423 389 L 1426 387 L 1430 387 L 1431 389 L 1429 395 L 1426 399 L 1417 407 L 1413 409 L 1407 417 L 1401 423 L 1398 423 L 1395 425 L 1393 425 L 1387 432 L 1385 433 L 1381 432 L 1378 436 L 1375 436 L 1370 440 L 1369 444 L 1364 450 L 1359 461 L 1362 465 L 1364 464 L 1367 464 L 1368 465 L 1368 468 L 1363 477 L 1374 484 L 1369 490 L 1376 492 L 1383 500 L 1387 502 L 1391 502 L 1393 504 L 1399 505 L 1403 507 L 1417 508 L 1418 507 L 1424 506 L 1427 508 L 1444 508 L 1445 509 L 1454 509 L 1455 508 L 1457 509 L 1460 508 L 1462 506 L 1466 506 L 1467 507 L 1485 507 L 1486 506 L 1505 505 L 1506 504 L 1523 504 L 1524 505 L 1530 505 L 1535 507 L 1549 507 L 1552 509 L 1556 509 L 1560 507 L 1563 507 L 1567 509 L 1578 509 L 1579 508 L 1589 508 L 1594 506 L 1607 506 L 1610 505 L 1612 503 L 1621 506 L 1628 506 L 1633 504 L 1637 504 L 1644 499 L 1647 501 L 1655 502 L 1657 500 L 1659 500 L 1662 498 L 1670 498 L 1671 496 L 1679 496 L 1685 494 L 1688 494 L 1693 497 L 1695 497 L 1698 495 L 1701 496 L 1711 496 L 1714 495 L 1718 497 L 1720 496 L 1725 496 L 1726 495 L 1729 496 L 1733 496 L 1734 495 L 1747 496 L 1749 494 L 1751 494 L 1754 496 L 1762 496 L 1764 494 L 1772 496 L 1778 494 L 1788 493 L 1796 487 L 1796 484 L 1795 483 L 1795 480 L 1790 476 L 1786 476 L 1784 474 L 1777 474 L 1776 473 L 1768 473 L 1764 475 L 1758 474 L 1757 475 L 1733 476 L 1729 478 L 1717 477 L 1712 479 L 1710 478 L 1703 478 L 1702 477 L 1699 477 L 1698 478 L 1693 477 L 1689 479 L 1685 479 L 1684 478 L 1656 479 L 1652 477 L 1648 477 L 1645 479 L 1614 479 L 1611 477 L 1607 477 L 1606 478 L 1594 478 L 1592 476 L 1585 476 L 1582 477 L 1581 476 L 1576 476 L 1567 473 L 1556 473 L 1546 470 L 1533 470 L 1520 466 L 1506 466 L 1492 460 L 1468 459 L 1463 458 L 1445 459 L 1426 453 L 1419 454 L 1409 454 L 1390 450 L 1390 447 L 1393 443 L 1398 439 L 1398 437 L 1400 435 L 1403 435 L 1412 426 L 1417 423 L 1429 412 L 1432 404 L 1439 401 L 1443 399 L 1444 393 L 1449 390 L 1449 385 L 1450 384 L 1452 387 L 1453 382 L 1460 379 L 1464 374 L 1468 373 L 1473 367 L 1472 364 L 1470 362 L 1470 356 L 1465 350 L 1465 348 L 1459 343 L 1457 343 L 1453 340 L 1449 340 L 1448 339 L 1435 340 L 1431 343 L 1422 347 L 1420 349 L 1416 350 L 1409 355 L 1403 356 L 1401 358 L 1385 366 L 1383 368 L 1377 370 L 1366 378 L 1364 378 L 1359 382 L 1357 382 L 1346 389 L 1344 389 L 1341 392 L 1339 392 L 1335 395 L 1329 396 L 1320 402 L 1313 404 L 1313 405 L 1309 408 L 1306 409 L 1298 409 L 1293 411 L 1291 413 L 1286 414 L 1280 418 L 1277 418 L 1275 420 L 1269 420 L 1267 422 L 1263 422 L 1261 424 L 1255 426 L 1251 426 L 1246 429 L 1243 429 L 1242 430 L 1241 429 L 1232 430 L 1231 431 L 1228 431 L 1224 434 L 1222 433 L 1215 434 L 1212 432 L 1210 432 L 1209 433 L 1205 433 L 1202 435 L 1200 435 L 1197 433 L 1195 433 L 1193 431 L 1191 432 L 1189 431 L 1186 427 L 1187 422 L 1189 421 L 1190 418 L 1192 417 L 1194 414 L 1197 412 L 1206 412 L 1207 410 L 1209 410 L 1211 408 L 1217 408 L 1222 405 L 1223 403 L 1227 401 L 1234 401 L 1238 399 L 1244 394 L 1254 389 L 1256 386 L 1261 385 L 1263 381 L 1269 376 L 1271 373 L 1271 371 L 1273 370 L 1273 362 L 1276 359 L 1276 355 L 1278 353 L 1278 349 L 1274 343 L 1269 343 L 1266 340 L 1266 337 L 1262 331 L 1257 329 L 1245 328 L 1240 331 L 1236 331 L 1234 333 L 1232 333 L 1229 335 L 1220 335 L 1216 338 L 1211 338 L 1208 340 L 1206 340 L 1201 344 L 1198 345 L 1195 348 L 1193 349 L 1190 348 L 1185 351 L 1185 352 L 1178 358 L 1166 366 L 1157 375 L 1151 378 L 1148 378 L 1142 386 L 1136 386 L 1132 388 L 1132 389 L 1130 390 L 1126 395 L 1122 395 L 1113 399 L 1109 399 L 1092 408 L 1089 408 L 1087 410 L 1083 410 L 1077 414 L 1072 413 L 1065 418 L 1059 418 L 1055 421 L 1050 422 L 1047 420 L 1049 417 L 1049 413 L 1052 410 L 1052 407 L 1058 396 L 1058 393 L 1064 386 L 1063 381 L 1069 374 L 1069 371 L 1072 367 L 1072 363 L 1068 356 L 1068 354 L 1061 346 L 1061 344 L 1058 341 L 1058 339 L 1052 334 L 1052 332 L 1050 329 L 1048 328 L 1041 320 L 1039 320 L 1032 316 L 1016 316 L 1015 317 L 1007 318 L 1006 319 L 1004 318 L 999 321 L 996 321 L 994 323 L 985 326 L 978 331 L 976 331 L 974 333 L 971 334 L 971 335 L 967 338 L 965 338 L 962 341 L 954 345 L 943 345 L 938 343 L 923 343 L 922 342 L 916 342 L 915 343 L 904 342 L 903 343 L 882 343 L 876 346 L 875 345 L 868 345 L 862 342 L 858 342 L 849 347 L 844 348 L 841 350 L 837 350 L 836 351 L 831 349 L 827 345 L 827 343 L 823 337 L 824 334 L 822 330 L 817 325 L 809 321 L 803 322 L 801 320 L 792 319 L 791 318 L 788 319 L 784 318 L 779 320 L 772 319 L 766 322 L 761 326 L 754 326 L 753 330 L 750 333 L 744 335 L 740 339 L 740 343 L 737 347 L 737 351 L 739 353 L 738 356 L 740 362 L 742 363 L 746 363 L 748 366 L 755 372 L 759 370 L 762 370 L 764 368 L 770 366 L 773 366 L 774 367 L 767 376 L 763 384 L 752 390 L 748 399 L 743 403 L 737 411 L 736 415 L 731 421 L 729 427 L 731 430 L 731 436 L 738 445 L 742 445 L 745 448 L 745 450 L 751 454 L 757 456 L 760 456 L 761 457 L 765 457 L 766 456 L 772 455 L 782 449 L 783 446 L 787 443 L 789 440 L 799 433 L 801 430 L 801 428 L 806 425 L 810 420 L 811 415 L 816 412 L 822 406 L 822 403 L 827 398 L 830 398 L 837 394 L 842 394 L 844 392 L 846 392 L 848 390 L 856 386 L 863 385 L 868 381 L 878 381 L 881 380 L 883 378 L 894 378 L 900 375 L 904 375 L 906 377 L 908 377 L 911 379 L 916 379 L 919 382 L 909 397 L 908 408 L 904 414 L 904 424 L 907 429 L 907 432 L 917 443 L 923 448 L 927 450 L 932 450 L 933 451 L 938 451 L 939 452 L 946 452 L 949 451 L 951 449 L 960 450 L 961 449 L 964 449 L 968 446 L 973 445 L 977 443 L 979 446 L 977 449 L 977 451 L 974 456 L 973 460 L 969 464 L 965 471 L 961 475 L 958 481 L 956 482 L 954 485 L 950 485 L 946 488 L 941 494 L 933 497 L 927 501 L 922 506 L 919 508 L 917 508 L 916 510 L 913 511 L 908 515 L 905 515 L 901 517 L 901 518 L 892 525 L 888 525 L 885 527 L 885 528 L 878 535 L 874 535 L 857 547 L 852 552 L 850 552 L 846 556 L 842 556 L 831 567 L 830 567 L 824 573 L 821 574 L 811 585 L 808 585 L 799 595 L 793 599 L 787 606 L 777 614 L 776 618 L 774 620 L 769 623 L 769 624 L 765 627 L 765 629 L 760 634 L 758 639 L 748 651 L 744 661 L 740 665 L 739 669 L 735 673 L 735 675 L 733 677 L 733 681 L 731 684 L 731 686 L 728 689 L 725 696 L 722 700 L 721 704 L 718 708 L 717 714 L 715 717 L 715 720 L 711 726 L 711 733 L 708 742 Z
M 922 546 L 923 549 L 919 553 L 919 555 L 914 561 L 914 563 L 908 570 L 908 572 L 904 578 L 895 588 L 894 592 L 890 598 L 884 604 L 883 607 L 878 614 L 873 618 L 872 623 L 867 627 L 863 634 L 855 641 L 855 643 L 851 648 L 849 649 L 847 652 L 818 680 L 817 682 L 809 687 L 794 700 L 789 702 L 786 705 L 784 705 L 778 709 L 776 712 L 772 714 L 770 711 L 776 703 L 778 697 L 780 695 L 780 692 L 783 688 L 783 686 L 785 685 L 787 682 L 789 673 L 793 670 L 801 658 L 802 654 L 812 645 L 812 643 L 816 637 L 827 626 L 828 626 L 831 620 L 840 611 L 845 609 L 846 604 L 848 602 L 850 602 L 855 599 L 865 588 L 872 584 L 878 577 L 884 576 L 886 573 L 886 571 L 890 567 L 892 566 L 896 566 L 900 564 L 900 563 L 903 561 L 907 556 L 910 555 L 911 553 L 917 551 L 917 550 Z
M 978 389 L 980 392 L 977 396 L 969 400 L 966 397 L 967 394 L 971 390 L 973 389 Z
M 651 318 L 649 318 L 647 316 L 644 315 L 637 315 L 632 311 L 630 311 L 628 313 L 617 312 L 613 314 L 609 314 L 599 322 L 593 324 L 590 324 L 578 334 L 572 338 L 570 338 L 561 347 L 552 353 L 548 357 L 548 359 L 544 362 L 533 374 L 533 377 L 527 384 L 527 386 L 525 387 L 523 393 L 520 396 L 518 400 L 518 404 L 516 406 L 512 414 L 512 417 L 509 426 L 507 429 L 506 437 L 508 441 L 507 445 L 509 451 L 511 453 L 511 455 L 513 458 L 515 459 L 522 467 L 532 473 L 536 473 L 542 476 L 546 476 L 547 477 L 560 476 L 568 472 L 571 469 L 587 460 L 591 460 L 603 451 L 607 452 L 609 450 L 611 450 L 619 442 L 622 442 L 626 439 L 634 431 L 634 429 L 636 426 L 643 421 L 644 417 L 652 411 L 653 408 L 656 405 L 656 401 L 655 399 L 658 396 L 661 395 L 662 390 L 666 385 L 666 378 L 668 376 L 669 369 L 670 368 L 668 364 L 668 360 L 671 356 L 671 349 L 670 346 L 666 341 L 667 337 L 664 333 L 660 330 L 658 327 L 658 324 Z
M 621 363 L 621 368 L 619 371 L 619 375 L 617 378 L 617 381 L 618 382 L 612 390 L 607 394 L 604 400 L 601 403 L 596 405 L 594 407 L 590 408 L 580 416 L 578 416 L 574 419 L 567 419 L 564 421 L 558 417 L 566 398 L 570 394 L 574 387 L 583 379 L 583 377 L 586 373 L 597 367 L 605 360 L 608 360 L 609 361 L 615 361 L 618 360 Z
M 569 52 L 553 40 L 550 39 L 547 39 L 546 40 L 534 39 L 533 40 L 530 40 L 525 43 L 516 43 L 510 47 L 506 46 L 496 54 L 492 54 L 489 57 L 484 58 L 480 60 L 477 63 L 468 63 L 466 64 L 458 71 L 451 71 L 444 75 L 438 77 L 416 79 L 415 78 L 411 78 L 404 72 L 402 50 L 400 47 L 400 44 L 396 38 L 396 36 L 392 34 L 388 29 L 383 26 L 376 20 L 374 20 L 372 23 L 368 24 L 361 29 L 353 23 L 345 25 L 338 32 L 338 35 L 332 40 L 328 47 L 329 54 L 322 62 L 322 70 L 320 71 L 316 77 L 315 80 L 315 83 L 316 84 L 309 91 L 304 99 L 301 101 L 301 105 L 299 108 L 293 113 L 290 119 L 271 139 L 271 140 L 250 160 L 245 163 L 241 168 L 237 169 L 237 170 L 235 171 L 229 178 L 225 181 L 218 184 L 206 195 L 203 195 L 201 197 L 201 199 L 196 205 L 193 205 L 186 209 L 182 214 L 173 214 L 166 218 L 165 220 L 161 220 L 159 221 L 155 227 L 156 229 L 153 232 L 146 235 L 143 239 L 143 245 L 138 251 L 138 255 L 141 259 L 141 261 L 145 265 L 145 267 L 141 270 L 135 269 L 132 271 L 124 281 L 115 288 L 110 296 L 102 304 L 101 304 L 91 317 L 85 322 L 82 327 L 69 342 L 68 345 L 63 352 L 57 358 L 55 364 L 53 366 L 49 374 L 46 376 L 42 386 L 31 402 L 32 411 L 27 419 L 24 422 L 22 426 L 22 429 L 20 431 L 20 441 L 24 450 L 32 458 L 34 459 L 37 459 L 38 458 L 42 460 L 42 464 L 45 467 L 50 467 L 51 468 L 62 467 L 64 466 L 65 464 L 67 464 L 71 461 L 74 463 L 81 463 L 89 459 L 96 452 L 97 447 L 101 444 L 107 437 L 107 434 L 114 428 L 115 423 L 124 416 L 125 413 L 127 411 L 127 409 L 131 406 L 137 399 L 137 397 L 144 390 L 147 384 L 152 380 L 155 374 L 159 371 L 164 365 L 167 359 L 175 350 L 181 341 L 183 340 L 185 336 L 188 333 L 189 330 L 193 327 L 196 321 L 202 315 L 202 314 L 208 309 L 210 306 L 211 302 L 219 295 L 219 293 L 222 290 L 224 290 L 226 288 L 232 288 L 236 284 L 239 283 L 242 280 L 244 280 L 247 277 L 248 274 L 251 271 L 253 271 L 260 264 L 261 261 L 263 259 L 263 256 L 267 252 L 271 250 L 272 246 L 275 244 L 282 235 L 294 224 L 295 221 L 306 212 L 311 205 L 314 204 L 333 187 L 339 184 L 348 178 L 349 176 L 351 176 L 360 169 L 365 167 L 377 156 L 379 156 L 384 152 L 392 148 L 398 142 L 404 139 L 406 139 L 412 135 L 420 135 L 423 133 L 429 133 L 431 135 L 433 135 L 438 141 L 438 149 L 440 151 L 440 154 L 438 158 L 438 165 L 440 168 L 439 177 L 441 180 L 441 184 L 443 186 L 444 190 L 448 194 L 448 197 L 450 199 L 453 200 L 462 208 L 485 219 L 491 227 L 492 236 L 490 239 L 490 241 L 488 243 L 488 248 L 482 255 L 482 258 L 480 260 L 480 262 L 477 267 L 470 276 L 468 277 L 468 278 L 458 288 L 458 289 L 434 311 L 426 316 L 420 322 L 414 324 L 413 326 L 405 333 L 399 336 L 396 336 L 387 344 L 378 346 L 372 352 L 369 353 L 360 353 L 358 354 L 357 356 L 354 357 L 348 356 L 347 355 L 341 355 L 335 357 L 333 359 L 331 359 L 326 362 L 321 361 L 319 359 L 316 358 L 313 359 L 312 358 L 304 358 L 301 361 L 294 360 L 287 364 L 285 368 L 282 370 L 280 369 L 275 369 L 263 382 L 258 383 L 254 386 L 250 393 L 246 397 L 246 403 L 244 405 L 244 408 L 242 409 L 240 413 L 241 416 L 241 430 L 243 431 L 244 433 L 244 437 L 249 445 L 261 453 L 264 453 L 268 455 L 273 455 L 274 454 L 283 460 L 295 460 L 298 458 L 301 458 L 303 456 L 306 456 L 312 459 L 322 458 L 332 453 L 334 453 L 337 451 L 340 447 L 342 448 L 349 440 L 352 438 L 355 438 L 364 431 L 365 432 L 370 432 L 378 425 L 382 425 L 385 423 L 385 422 L 387 421 L 387 417 L 388 416 L 394 416 L 398 413 L 403 406 L 408 405 L 414 398 L 425 390 L 426 387 L 435 380 L 438 376 L 445 371 L 446 369 L 449 368 L 451 366 L 451 363 L 454 360 L 456 360 L 460 357 L 470 346 L 474 344 L 479 338 L 483 336 L 484 334 L 494 325 L 498 323 L 503 316 L 505 316 L 515 308 L 515 306 L 525 298 L 532 291 L 533 288 L 535 287 L 545 275 L 546 271 L 550 267 L 552 260 L 555 257 L 556 252 L 558 250 L 559 247 L 559 242 L 561 239 L 561 228 L 559 226 L 560 219 L 558 213 L 554 207 L 554 203 L 552 198 L 549 196 L 547 188 L 546 188 L 543 184 L 543 181 L 534 173 L 533 170 L 532 170 L 531 168 L 527 165 L 525 165 L 523 162 L 521 162 L 519 160 L 519 156 L 520 155 L 520 151 L 523 147 L 525 146 L 542 128 L 543 128 L 549 122 L 553 120 L 553 119 L 555 118 L 564 108 L 568 106 L 569 104 L 569 100 L 572 98 L 576 92 L 576 87 L 578 82 L 578 72 L 577 71 L 577 68 L 575 66 L 575 61 L 570 55 Z" fill="#111111" fill-rule="evenodd"/>
</svg>
