<svg xmlns="http://www.w3.org/2000/svg" viewBox="0 0 140 175" width="140" height="175">
  <rect width="140" height="175" fill="#F5F3EF"/>
  <rect x="0" y="168" width="140" height="7" rx="1" fill="#9B9EA3"/>
  <g transform="rotate(-4, 42, 148)">
    <rect x="0" y="8" width="38" height="160" rx="2" fill="#2D3136"/>
    <rect x="0" y="8" width="5" height="160" rx="1" fill="#23272B"/>
    <rect x="11" y="78" width="18" height="7" rx="1.5" fill="white" opacity="0.85"/>
  </g>
  <g transform="translate(40, 0)">
    <rect x="0" y="0" width="12" height="168" rx="1" fill="#7B8FA1"/>
    <rect x="8" y="0" width="38" height="168" rx="2" fill="#2D3136"/>
    <rect x="8" y="0" width="5" height="168" rx="1" fill="#23272B"/>
    <rect x="20" y="78" width="18" height="7" rx="1.5" fill="white" opacity="0.85"/>
  </g>
  <g transform="translate(84, 12)">
    <rect x="0" y="0" width="38" height="156" rx="2" fill="#2D3136"/>
    <rect x="0" y="0" width="5" height="156" rx="1" fill="#23272B"/>
    <rect x="11" y="72" width="18" height="7" rx="1.5" fill="white" opacity="0.85"/>
  </g>
</svg>
